<svg width="73" height="58" viewBox="0 0 73 58" fill="none" xmlns="http://www.w3.org/2000/svg">
<path d="M2.04 57.32H0.52C0.733333 54.92 2.14667 47.88 4.76 36.2C7.37333 24.4667 9 15.6933 9.64 9.88C9.64 9.02666 9.34667 8.01333 8.76 6.84C8.22667 5.61333 7.66667 4.62666 7.08 3.88L6.28 2.76L6.52 1.56C9.50667 0.653331 14.6533 0.199997 21.96 0.199997C22.6533 1.48 23 2.73333 23 3.96C23 5.18666 22.8933 6.70666 22.68 8.52C29.3467 2.97333 34.7867 0.199997 39 0.199997C41.7733 0.199997 44.0133 1.10666 45.72 2.92C47.4267 4.73333 48.28 7.26666 48.28 10.52C48.28 13.7733 47.1333 19.9867 44.84 29.16C42.6 38.28 41.48 44.6533 41.48 48.28C41.48 49.8267 41.7467 50.6 42.28 50.6C42.76 50.6 44.0933 50.0667 46.28 49L47.32 48.52L48.92 51.48C46.68 53.4 44.36 54.9733 41.96 56.2C39.56 57.3733 37.3733 57.96 35.4 57.96C33.48 57.96 31.9067 57.2667 30.68 55.88C29.4533 54.44 28.84 52.52 28.84 50.12C28.84 47.6667 29.9333 41.6133 32.12 31.96C34.36 22.3067 35.48 16.1467 35.48 13.48C35.48 10.8133 34.44 9.48 32.36 9.48C29.2133 9.48 25.64 11.0533 21.64 14.2C21.0533 17.0267 19.96 21.7467 18.36 28.36C14.84 42.92 13.08 52.04 13.08 55.72C11 56.7867 7.32 57.32 2.04 57.32ZM72.9306 3.88C72.9306 9.16 71.1973 17.4533 67.7306 28.76C67.464 29.6667 66.9573 31.32 66.2106 33.72C65.5173 36.0667 64.984 37.88 64.6106 39.16C63.1706 39.64 61.8906 39.88 60.7706 39.88C59.704 39.88 58.744 39.8267 57.8906 39.72C59.8106 28.1467 60.7706 17.9333 60.7706 9.08L60.2906 2.36C64.824 0.919997 68.8773 0.199997 72.4506 0.199997C72.7706 0.679997 72.9306 1.90666 72.9306 3.88ZM53.9706 56.44C52.904 55.3733 52.3706 53.96 52.3706 52.2C52.3706 50.44 53.0906 48.8933 54.5306 47.56C56.024 46.2267 57.7306 45.56 59.6506 45.56C61.5706 45.56 63.064 46.0933 64.1306 47.16C65.1973 48.2267 65.7306 49.64 65.7306 51.4C65.7306 53.1067 64.9573 54.6267 63.4106 55.96C61.9173 57.2933 60.2373 57.96 58.3706 57.96C56.504 57.96 55.0373 57.4533 53.9706 56.44Z" fill="black"/>
</svg>
